<svg xmlns="http://www.w3.org/2000/svg" viewBox="0 0 1100 580" width="100%" height="100%">
  <defs>
    <style>
      @import url('https://fonts.googleapis.com/css2?family=JetBrains+Mono:wght@400;500;600;700;800&amp;family=Inter:wght@400;500;600;700;800;900&amp;display=swap');
      
      .bg { fill: #0a0d14; }
      .border-line { stroke: #252e3d; stroke-width: 1; stroke-dasharray: 4 4; fill: none; }
      .solid-border { stroke: #252e3d; stroke-width: 1; fill: none; }
      
      .headline { font-family: 'Inter', -apple-system, sans-serif; font-size: 34px; font-weight: 800; fill: #f1f5f9; letter-spacing: -0.03em; }
      .headline-dim { font-family: 'Inter', -apple-system, sans-serif; font-size: 34px; font-weight: 700; fill: #64748b; letter-spacing: -0.03em; }
      .subline { font-family: 'JetBrains Mono', monospace; font-size: 13px; font-weight: 500; fill: #94a3b8; }
      
      .label-mono { font-family: 'JetBrains Mono', monospace; font-size: 11px; font-weight: 600; fill: #64748b; letter-spacing: 0.1em; }
      .text-mono { font-family: 'JetBrains Mono', monospace; font-size: 13px; font-weight: 500; fill: #cbd5e1; }
      .text-dim { font-family: 'JetBrains Mono', monospace; font-size: 12px; fill: #64748b; }
      
      .badge-amber { fill: #f59e0b; font-family: 'JetBrains Mono', monospace; font-size: 11px; font-weight: 700; }
      .badge-cyan { fill: #06b6d4; font-family: 'JetBrains Mono', monospace; font-size: 11px; font-weight: 700; }
      .badge-pass { fill: #10b981; font-family: 'JetBrains Mono', monospace; font-size: 11px; font-weight: 700; }
      
      .stat-val { font-family: 'Inter', sans-serif; font-size: 32px; font-weight: 800; fill: #f8fafc; }
      .stat-lbl { font-family: 'JetBrains Mono', monospace; font-size: 10px; font-weight: 600; fill: #64748b; letter-spacing: 0.08em; }
      
      /* Grid pulse animation */
      @keyframes amberPulse {
        0%, 100% { opacity: 0.85; }
        50% { opacity: 1; filter: drop-shadow(0 0 3px #f59e0b); }
      }
      @keyframes cyanPulse {
        0%, 100% { opacity: 0.85; }
        50% { opacity: 1; filter: drop-shadow(0 0 3px #06b6d4); }
      }
      .cell-amber { fill: #f59e0b; animation: amberPulse 3s ease-in-out infinite; }
      .cell-cyan { fill: #06b6d4; animation: cyanPulse 3s ease-in-out infinite; }
      .cell-emerald { fill: #10b981; }
      .cell-empty { fill: #111827; stroke: #1e293b; stroke-width: 1; }
      
      /* Light mode adaptation */
      @media (prefers-color-scheme: light) {
        .bg { fill: #f8fafc; }
        .border-line { stroke: #e2e8f0; }
        .solid-border { stroke: #cbd5e1; }
        .headline { fill: #0f172a; }
        .headline-dim { fill: #64748b; }
        .subline { fill: #475569; }
        .label-mono { fill: #64748b; }
        .text-mono { fill: #0f172a; }
        .text-dim { fill: #64748b; }
        .stat-val { fill: #0f172a; }
        .stat-lbl { fill: #64748b; }
        .cell-empty { fill: #e2e8f0; stroke: #cbd5e1; }
      }
    </style>
  </defs>

  <!-- Background Canvas -->
  <rect width="1100" height="580" class="bg" rx="16" />
  <rect x="1" y="1" width="1098" height="578" class="solid-border" rx="16" />

  <!-- Dotted Grid Separators (Nymspace style) -->
  <line x1="45" y1="285" x2="1055" y2="285" class="border-line" />
  <line x1="580" y1="40" x2="580" y2="260" class="border-line" />

  <!-- Crosshair Accents (+) -->
  <g fill="#64748b" font-family="'JetBrains Mono', monospace" font-size="16" font-weight="600">
    <text x="38" y="291">+</text>
    <text x="1050" y="291">+</text>
    <text x="575" y="291">+</text>
  </g>

  <!-- ================= LEFT HEADER: LOGO & AUTHORITY MANTRA ================= -->
  <g transform="translate(60, 48)">
    <!-- Brand Tile: Aether Spatial Orbit in Squircle -->
    <rect width="48" height="48" rx="14" fill="#111827" stroke="#252e3d" stroke-width="1.5" />
    <circle cx="24" cy="24" r="10" fill="none" stroke="#f59e0b" stroke-width="1.5" stroke-dasharray="2 3" />
    <circle cx="24" cy="24" r="4" fill="#06b6d4" />
    <circle cx="31" cy="17" r="2.5" fill="#f59e0b" />
    <circle cx="17" cy="31" r="2" fill="#10b981" />

    <!-- 3-line Authority Mantra -->
    <text x="0" y="90" class="headline">Spatial DeFi.</text>
    <text x="0" y="132" class="headline-dim">Nansen Intelligence.</text>
    <text x="0" y="174" class="headline">Zero Slippage.</text>

    <!-- Subtitle Spec Tags -->
    <text x="0" y="212" class="subline">Tri-Modal Workspaces · WebGL 2.0 &amp; Nymspace Bend</text>
    <text x="0" y="230" class="subline">11 MCP Agent Tools · Real-Time Fast SSE Stream</text>
  </g>

  <!-- ================= RIGHT HEADER: TELEMETRY & GATE SIGNALS ================= -->
  <g transform="translate(620, 52)">
    <!-- Section 1: Workspaces & Routing -->
    <text x="0" y="0" class="label-mono">WORKSPACES &amp; TELEMETRY</text>
    <text x="0" y="26" class="text-mono">aether.spatial.risk</text>
    <text x="230" y="26" class="text-dim">cross-chain OS</text>

    <text x="0" y="48" class="text-dim">├── [1] Spatial Canvas</text>
    <text x="230" y="48" class="text-dim">WebGL 2.0 · star fit</text>

    <text x="0" y="70" class="text-dim">├── [2] Dashed Ledger</text>
    <text x="230" y="70" class="text-dim">3D bend · SVG charts</text>

    <text x="0" y="92" class="text-dim">├── [3] CCTV Matrix</text>
    <text x="230" y="92" class="text-dim">9-CAM · CRT shader</text>

    <text x="0" y="114" class="text-dim">└── [!] MEV Exit Deck</text>
    <text x="230" y="114" class="text-dim">1.2s hold · 0-sandwich</text>

    <!-- Section 2: Gate Signals -->
    <text x="0" y="152" class="label-mono">NANSEN TELEMETRY GATES</text>
    
    <circle cx="4" cy="173" r="3.5" fill="#10b981" />
    <text x="16" y="177" class="text-mono">/api/v1/agent/fast</text>
    <text x="300" y="177" class="badge-pass">SSE STREAM [LIVE]</text>

    <circle cx="4" cy="195" r="3.5" fill="#06b6d4" />
    <text x="16" y="199" class="text-mono">/profiler/current-balance</text>
    <text x="300" y="199" class="badge-cyan">1,248+ CALLS [PASS]</text>

    <circle cx="4" cy="217" r="3.5" fill="#f59e0b" />
    <text x="16" y="221" class="text-mono">mcp/aether-mcp.mjs</text>
    <text x="300" y="221" class="badge-amber">11 TOOLS [STDIO]</text>
  </g>

  <!-- ================= LOWER SECTION: BUILD LOG (COMMIT HEATMAP) ================= -->
  <g transform="translate(60, 310)">
    <!-- Label -->
    <text x="0" y="0" class="label-mono">[ BUILD LOG &amp; SYSTEM TELEMETRY ]</text>

    <!-- Contribution Grid (26 Columns x 7 Rows) -->
    <g transform="translate(0, 20)">
      <!-- Render 26 week columns with dots -->
      <!-- Week 1-22 empty -->
      <g opacity="0.6">
        <g transform="translate(0,0)"><rect x="0" y="0" width="13" height="13" rx="3" class="cell-empty"/><rect x="0" y="17" width="13" height="13" rx="3" class="cell-empty"/><rect x="0" y="34" width="13" height="13" rx="3" class="cell-empty"/><rect x="0" y="51" width="13" height="13" rx="3" class="cell-empty"/><rect x="0" y="68" width="13" height="13" rx="3" class="cell-empty"/><rect x="0" y="85" width="13" height="13" rx="3" class="cell-empty"/><rect x="0" y="102" width="13" height="13" rx="3" class="cell-empty"/></g>
        <g transform="translate(18,0)"><rect x="0" y="0" width="13" height="13" rx="3" class="cell-empty"/><rect x="0" y="17" width="13" height="13" rx="3" class="cell-empty"/><rect x="0" y="34" width="13" height="13" rx="3" class="cell-empty"/><rect x="0" y="51" width="13" height="13" rx="3" class="cell-empty"/><rect x="0" y="68" width="13" height="13" rx="3" class="cell-empty"/><rect x="0" y="85" width="13" height="13" rx="3" class="cell-empty"/><rect x="0" y="102" width="13" height="13" rx="3" class="cell-empty"/></g>
        <g transform="translate(36,0)"><rect x="0" y="0" width="13" height="13" rx="3" class="cell-empty"/><rect x="0" y="17" width="13" height="13" rx="3" class="cell-empty"/><rect x="0" y="34" width="13" height="13" rx="3" class="cell-empty"/><rect x="0" y="51" width="13" height="13" rx="3" class="cell-empty"/><rect x="0" y="68" width="13" height="13" rx="3" class="cell-empty"/><rect x="0" y="85" width="13" height="13" rx="3" class="cell-empty"/><rect x="0" y="102" width="13" height="13" rx="3" class="cell-empty"/></g>
        <g transform="translate(54,0)"><rect x="0" y="0" width="13" height="13" rx="3" class="cell-empty"/><rect x="0" y="17" width="13" height="13" rx="3" class="cell-empty"/><rect x="0" y="34" width="13" height="13" rx="3" class="cell-empty"/><rect x="0" y="51" width="13" height="13" rx="3" class="cell-empty"/><rect x="0" y="68" width="13" height="13" rx="3" class="cell-empty"/><rect x="0" y="85" width="13" height="13" rx="3" class="cell-empty"/><rect x="0" y="102" width="13" height="13" rx="3" class="cell-empty"/></g>
        <g transform="translate(72,0)"><rect x="0" y="0" width="13" height="13" rx="3" class="cell-empty"/><rect x="0" y="17" width="13" height="13" rx="3" class="cell-empty"/><rect x="0" y="34" width="13" height="13" rx="3" class="cell-empty"/><rect x="0" y="51" width="13" height="13" rx="3" class="cell-empty"/><rect x="0" y="68" width="13" height="13" rx="3" class="cell-empty"/><rect x="0" y="85" width="13" height="13" rx="3" class="cell-empty"/><rect x="0" y="102" width="13" height="13" rx="3" class="cell-empty"/></g>
        <g transform="translate(90,0)"><rect x="0" y="0" width="13" height="13" rx="3" class="cell-empty"/><rect x="0" y="17" width="13" height="13" rx="3" class="cell-empty"/><rect x="0" y="34" width="13" height="13" rx="3" class="cell-empty"/><rect x="0" y="51" width="13" height="13" rx="3" class="cell-empty"/><rect x="0" y="68" width="13" height="13" rx="3" class="cell-empty"/><rect x="0" y="85" width="13" height="13" rx="3" class="cell-empty"/><rect x="0" y="102" width="13" height="13" rx="3" class="cell-empty"/></g>
        <g transform="translate(108,0)"><rect x="0" y="0" width="13" height="13" rx="3" class="cell-empty"/><rect x="0" y="17" width="13" height="13" rx="3" class="cell-empty"/><rect x="0" y="34" width="13" height="13" rx="3" class="cell-empty"/><rect x="0" y="51" width="13" height="13" rx="3" class="cell-empty"/><rect x="0" y="68" width="13" height="13" rx="3" class="cell-empty"/><rect x="0" y="85" width="13" height="13" rx="3" class="cell-empty"/><rect x="0" y="102" width="13" height="13" rx="3" class="cell-empty"/></g>
        <g transform="translate(126,0)"><rect x="0" y="0" width="13" height="13" rx="3" class="cell-empty"/><rect x="0" y="17" width="13" height="13" rx="3" class="cell-empty"/><rect x="0" y="34" width="13" height="13" rx="3" class="cell-empty"/><rect x="0" y="51" width="13" height="13" rx="3" class="cell-empty"/><rect x="0" y="68" width="13" height="13" rx="3" class="cell-empty"/><rect x="0" y="85" width="13" height="13" rx="3" class="cell-empty"/><rect x="0" y="102" width="13" height="13" rx="3" class="cell-empty"/></g>
        <g transform="translate(144,0)"><rect x="0" y="0" width="13" height="13" rx="3" class="cell-empty"/><rect x="0" y="17" width="13" height="13" rx="3" class="cell-empty"/><rect x="0" y="34" width="13" height="13" rx="3" class="cell-empty"/><rect x="0" y="51" width="13" height="13" rx="3" class="cell-empty"/><rect x="0" y="68" width="13" height="13" rx="3" class="cell-empty"/><rect x="0" y="85" width="13" height="13" rx="3" class="cell-empty"/><rect x="0" y="102" width="13" height="13" rx="3" class="cell-empty"/></g>
        <g transform="translate(162,0)"><rect x="0" y="0" width="13" height="13" rx="3" class="cell-empty"/><rect x="0" y="17" width="13" height="13" rx="3" class="cell-empty"/><rect x="0" y="34" width="13" height="13" rx="3" class="cell-empty"/><rect x="0" y="51" width="13" height="13" rx="3" class="cell-empty"/><rect x="0" y="68" width="13" height="13" rx="3" class="cell-empty"/><rect x="0" y="85" width="13" height="13" rx="3" class="cell-empty"/><rect x="0" y="102" width="13" height="13" rx="3" class="cell-empty"/></g>
        <g transform="translate(180,0)"><rect x="0" y="0" width="13" height="13" rx="3" class="cell-empty"/><rect x="0" y="17" width="13" height="13" rx="3" class="cell-empty"/><rect x="0" y="34" width="13" height="13" rx="3" class="cell-empty"/><rect x="0" y="51" width="13" height="13" rx="3" class="cell-empty"/><rect x="0" y="68" width="13" height="13" rx="3" class="cell-empty"/><rect x="0" y="85" width="13" height="13" rx="3" class="cell-empty"/><rect x="0" y="102" width="13" height="13" rx="3" class="cell-empty"/></g>
        <g transform="translate(198,0)"><rect x="0" y="0" width="13" height="13" rx="3" class="cell-empty"/><rect x="0" y="17" width="13" height="13" rx="3" class="cell-empty"/><rect x="0" y="34" width="13" height="13" rx="3" class="cell-empty"/><rect x="0" y="51" width="13" height="13" rx="3" class="cell-empty"/><rect x="0" y="68" width="13" height="13" rx="3" class="cell-empty"/><rect x="0" y="85" width="13" height="13" rx="3" class="cell-empty"/><rect x="0" y="102" width="13" height="13" rx="3" class="cell-empty"/></g>
        <g transform="translate(216,0)"><rect x="0" y="0" width="13" height="13" rx="3" class="cell-empty"/><rect x="0" y="17" width="13" height="13" rx="3" class="cell-empty"/><rect x="0" y="34" width="13" height="13" rx="3" class="cell-empty"/><rect x="0" y="51" width="13" height="13" rx="3" class="cell-empty"/><rect x="0" y="68" width="13" height="13" rx="3" class="cell-empty"/><rect x="0" y="85" width="13" height="13" rx="3" class="cell-empty"/><rect x="0" y="102" width="13" height="13" rx="3" class="cell-empty"/></g>
        <g transform="translate(234,0)"><rect x="0" y="0" width="13" height="13" rx="3" class="cell-empty"/><rect x="0" y="17" width="13" height="13" rx="3" class="cell-empty"/><rect x="0" y="34" width="13" height="13" rx="3" class="cell-empty"/><rect x="0" y="51" width="13" height="13" rx="3" class="cell-empty"/><rect x="0" y="68" width="13" height="13" rx="3" class="cell-empty"/><rect x="0" y="85" width="13" height="13" rx="3" class="cell-empty"/><rect x="0" y="102" width="13" height="13" rx="3" class="cell-empty"/></g>
        <g transform="translate(252,0)"><rect x="0" y="0" width="13" height="13" rx="3" class="cell-empty"/><rect x="0" y="17" width="13" height="13" rx="3" class="cell-empty"/><rect x="0" y="34" width="13" height="13" rx="3" class="cell-empty"/><rect x="0" y="51" width="13" height="13" rx="3" class="cell-empty"/><rect x="0" y="68" width="13" height="13" rx="3" class="cell-empty"/><rect x="0" y="85" width="13" height="13" rx="3" class="cell-empty"/><rect x="0" y="102" width="13" height="13" rx="3" class="cell-empty"/></g>
        <g transform="translate(270,0)"><rect x="0" y="0" width="13" height="13" rx="3" class="cell-empty"/><rect x="0" y="17" width="13" height="13" rx="3" class="cell-empty"/><rect x="0" y="34" width="13" height="13" rx="3" class="cell-empty"/><rect x="0" y="51" width="13" height="13" rx="3" class="cell-empty"/><rect x="0" y="68" width="13" height="13" rx="3" class="cell-empty"/><rect x="0" y="85" width="13" height="13" rx="3" class="cell-empty"/><rect x="0" y="102" width="13" height="13" rx="3" class="cell-empty"/></g>
        <g transform="translate(288,0)"><rect x="0" y="0" width="13" height="13" rx="3" class="cell-empty"/><rect x="0" y="17" width="13" height="13" rx="3" class="cell-empty"/><rect x="0" y="34" width="13" height="13" rx="3" class="cell-empty"/><rect x="0" y="51" width="13" height="13" rx="3" class="cell-empty"/><rect x="0" y="68" width="13" height="13" rx="3" class="cell-empty"/><rect x="0" y="85" width="13" height="13" rx="3" class="cell-empty"/><rect x="0" y="102" width="13" height="13" rx="3" class="cell-empty"/></g>
        <g transform="translate(306,0)"><rect x="0" y="0" width="13" height="13" rx="3" class="cell-empty"/><rect x="0" y="17" width="13" height="13" rx="3" class="cell-empty"/><rect x="0" y="34" width="13" height="13" rx="3" class="cell-empty"/><rect x="0" y="51" width="13" height="13" rx="3" class="cell-empty"/><rect x="0" y="68" width="13" height="13" rx="3" class="cell-empty"/><rect x="0" y="85" width="13" height="13" rx="3" class="cell-empty"/><rect x="0" y="102" width="13" height="13" rx="3" class="cell-empty"/></g>
        <g transform="translate(324,0)"><rect x="0" y="0" width="13" height="13" rx="3" class="cell-empty"/><rect x="0" y="17" width="13" height="13" rx="3" class="cell-empty"/><rect x="0" y="34" width="13" height="13" rx="3" class="cell-empty"/><rect x="0" y="51" width="13" height="13" rx="3" class="cell-empty"/><rect x="0" y="68" width="13" height="13" rx="3" class="cell-empty"/><rect x="0" y="85" width="13" height="13" rx="3" class="cell-empty"/><rect x="0" y="102" width="13" height="13" rx="3" class="cell-empty"/></g>
        <g transform="translate(342,0)"><rect x="0" y="0" width="13" height="13" rx="3" class="cell-empty"/><rect x="0" y="17" width="13" height="13" rx="3" class="cell-empty"/><rect x="0" y="34" width="13" height="13" rx="3" class="cell-empty"/><rect x="0" y="51" width="13" height="13" rx="3" class="cell-empty"/><rect x="0" y="68" width="13" height="13" rx="3" class="cell-empty"/><rect x="0" y="85" width="13" height="13" rx="3" class="cell-empty"/><rect x="0" y="102" width="13" height="13" rx="3" class="cell-empty"/></g>
        <g transform="translate(360,0)"><rect x="0" y="0" width="13" height="13" rx="3" class="cell-empty"/><rect x="0" y="17" width="13" height="13" rx="3" class="cell-empty"/><rect x="0" y="34" width="13" height="13" rx="3" class="cell-empty"/><rect x="0" y="51" width="13" height="13" rx="3" class="cell-empty"/><rect x="0" y="68" width="13" height="13" rx="3" class="cell-empty"/><rect x="0" y="85" width="13" height="13" rx="3" class="cell-empty"/><rect x="0" y="102" width="13" height="13" rx="3" class="cell-empty"/></g>
      </g>

      <!-- Active Meridian Build Window (Sep 15-27) -->
      <g transform="translate(378,0)">
        <rect x="0" y="0" width="13" height="13" rx="3" class="cell-empty"/>
        <rect x="0" y="17" width="13" height="13" rx="3" class="cell-empty"/>
        <rect x="0" y="34" width="13" height="13" rx="3" class="cell-empty"/>
        <rect x="0" y="51" width="13" height="13" rx="3" class="cell-cyan"/>
        <rect x="0" y="68" width="13" height="13" rx="3" class="cell-amber"/>
        <rect x="0" y="85" width="13" height="13" rx="3" class="cell-amber"/>
        <rect x="0" y="102" width="13" height="13" rx="3" class="cell-cyan"/>
      </g>
      <g transform="translate(396,0)">
        <rect x="0" y="0" width="13" height="13" rx="3" class="cell-cyan"/>
        <rect x="0" y="17" width="13" height="13" rx="3" class="cell-amber"/>
        <rect x="0" y="34" width="13" height="13" rx="3" class="cell-cyan"/>
        <rect x="0" y="51" width="13" height="13" rx="3" class="cell-amber"/>
        <rect x="0" y="68" width="13" height="13" rx="3" class="cell-amber"/>
        <rect x="0" y="85" width="13" height="13" rx="3" class="cell-cyan"/>
        <rect x="0" y="102" width="13" height="13" rx="3" class="cell-emerald"/>
      </g>
    </g>

    <!-- Month indicators below heatmap -->
    <g transform="translate(0, 150)" class="text-dim" font-size="11">
      <text x="0">Apr</text>
      <text x="90">May</text>
      <text x="180">Jun</text>
      <text x="270">Jul</text>
      <text x="350">Aug</text>
      <text x="390" font-weight="700" fill="#f59e0b">Sep (Meridian)</text>
    </g>

    <!-- Right Telemetry KPIs -->
    <g transform="translate(560, 20)">
      <g transform="translate(0,0)">
        <text x="0" y="24" class="stat-val">1,248+</text>
        <text x="0" y="42" class="stat-lbl">NANSEN API CALLS</text>
      </g>
      <g transform="translate(180,0)">
        <text x="0" y="24" class="stat-val">11</text>
        <text x="0" y="42" class="stat-lbl">MCP AGENT TOOLS</text>
      </g>
      <g transform="translate(0,68)">
        <text x="0" y="24" class="stat-val">3</text>
        <text x="0" y="42" class="stat-lbl">UNIFIED WORKSPACES</text>
      </g>
      <g transform="translate(180,68)">
        <text x="0" y="24" class="stat-val">100%</text>
        <text x="0" y="42" class="stat-lbl">STRICT TYPESCRIPT</text>
      </g>
    </g>

    <!-- Latest Commits List -->
    <g transform="translate(0, 185)">
      <text x="0" y="0" class="label-mono">LATEST VERIFIED COMMITS</text>
      <text x="380" y="0" class="text-dim">drawn 2026-09-27 21:15 utc</text>

      <g transform="translate(0, 18)" class="text-mono" font-size="11.5">
        <text x="0" y="0" fill="#38bdf8">d66e0e7</text>
        <text x="70" y="0" class="text-dim">Sep 27</text>
        <text x="130" y="0">docs(showcase): update visual showcase with high-res captured screenshots</text>
      </g>
      <g transform="translate(0, 36)" class="text-mono" font-size="11.5">
        <text x="0" y="0" fill="#38bdf8">5bd3b01</text>
        <text x="70" y="0" class="text-dim">Sep 27</text>
        <text x="130" y="0">docs(showcase): standardize Visual Showcase interactive flows and callouts</text>
      </g>
      <g transform="translate(0, 54)" class="text-mono" font-size="11.5">
        <text x="0" y="0" fill="#38bdf8">d2d469b</text>
        <text x="70" y="0" class="text-dim">Sep 27</text>
        <text x="130" y="0">feat(canvas): automatically layout &amp; frame route windows on receipt</text>
      </g>
    </g>
  </g>
</svg>